<?xml version="1.0" encoding="utf-8"?>
<!-- Generator: Adobe Illustrator 22.0.1, SVG Export Plug-In . SVG Version: 6.00 Build 0)  -->
<svg version="1.1" id="Layer_1" xmlns="http://www.w3.org/2000/svg" xmlns:xlink="http://www.w3.org/1999/xlink" x="0px" y="0px"
	 viewBox="0 0 512 512" style="enable-background:new 0 0 512 512;" xml:space="preserve">
<style type="text/css">
	.st0{fill:#1BA332;}
</style>
<g>
	<g>
		<path class="st0" d="M256,11C120.9,11,11,120.9,11,256s109.9,245,245,245s245-109.9,245-245S391.1,11,256,11z M256,460.2
			c-112.6,0-204.2-91.6-204.2-204.2S143.4,51.8,256,51.8S460.2,143.4,460.2,256S368.6,460.2,256,460.2z"/>
		<path class="st0" d="M357.6,235.6h-81.2v-81.2c0-11.3-9.1-20.4-20.4-20.4c-11.3,0-20.4,9.1-20.4,20.4v81.2h-81.2
			c-11.3,0-20.4,9.1-20.4,20.4s9.1,20.4,20.4,20.4h81.2v81.2c0,11.3,9.1,20.4,20.4,20.4s20.4-9.1,20.4-20.4v-81.2h81.2
			c11.3,0,20.4-9.1,20.4-20.4S368.9,235.6,357.6,235.6L357.6,235.6z"/>
	</g>
</g>
</svg>
