<?xml version="1.0" encoding="utf-8"?>
<!-- Generator: Adobe Illustrator 22.0.1, SVG Export Plug-In . SVG Version: 6.00 Build 0)  -->
<svg version="1.1" id="Capa_1" xmlns="http://www.w3.org/2000/svg" xmlns:xlink="http://www.w3.org/1999/xlink" x="0px" y="0px"
	 viewBox="0 0 47 47" style="enable-background:new 0 0 47 47;" xml:space="preserve">
<style type="text/css">
	.st0{fill:#FFFFFF;}
</style>
<g>
	<g>
		<path class="st0" d="M23.5,7.7c0.5,0,1-0.4,1-1V1c0-0.6-0.5-1-1-1s-1,0.4-1,1v5.7C22.5,7.3,23,7.7,23.5,7.7z"/>
		<path class="st0" d="M23.5,39.3c-0.5,0-1,0.5-1,1V46c0,0.5,0.5,1,1,1s1-0.5,1-1v-5.7C24.5,39.7,24.1,39.3,23.5,39.3z"/>
		<path class="st0" d="M8.3,6.9c-0.4-0.4-1-0.4-1.4,0s-0.4,1,0,1.4l4,4c0.4,0.4,1,0.4,1.4,0c0.4-0.4,0.4-1,0-1.4L8.3,6.9z"/>
		<path class="st0" d="M36.1,34.7c-0.4-0.4-1-0.4-1.4,0c-0.4,0.4-0.4,1,0,1.4l4,4c0.4,0.4,1,0.4,1.4,0c0.4-0.4,0.4-1,0-1.4
			L36.1,34.7z"/>
		<path class="st0" d="M7.7,23.5c0-0.5-0.4-1-1-1H1c-0.6,0-1,0.5-1,1s0.4,1,1,1h5.7C7.3,24.5,7.7,24,7.7,23.5z"/>
		<path class="st0" d="M46,22.5h-5.7c-0.5,0-1,0.5-1,1s0.5,1,1,1H46c0.5,0,1-0.5,1-1S46.5,22.5,46,22.5z"/>
		<path class="st0" d="M10.9,34.7l-4,4c-0.4,0.4-0.4,1,0,1.4c0.4,0.4,1,0.4,1.4,0l4-4c0.4-0.4,0.4-1,0-1.4
			C11.9,34.3,11.3,34.3,10.9,34.7z"/>
		<path class="st0" d="M36.1,12.3l4-4c0.4-0.4,0.4-1,0-1.4s-1-0.4-1.4,0l-4,4c-0.4,0.4-0.4,1,0,1.4C35.1,12.7,35.7,12.7,36.1,12.3z"
			/>
		<path class="st0" d="M30.6,23.2c-0.6-0.4-1.2-0.7-2-1c-0.7-0.2-1.5-0.5-2.3-0.6c-0.6-0.1-1.2-0.3-1.8-0.4V17
			c0.4,0.1,0.9,0.2,1.2,0.4c0.7,0.4,1.1,1.1,1.2,2.1H32c-0.1-1.2-0.4-2.2-0.9-3c-0.5-0.8-1.2-1.4-1.9-1.9c-0.8-0.5-1.7-0.8-2.6-1
			c-0.6-0.1-1.3-0.2-2-0.2V11h-2v2.3c-0.7,0-1.5,0.1-2.2,0.2c-1,0.2-1.9,0.5-2.7,1s-1.4,1.1-1.9,1.9c-0.5,0.8-0.7,1.8-0.7,3.1
			c0,0.9,0.2,1.6,0.5,2.2c0.4,0.6,0.8,1.1,1.4,1.5c0.6,0.4,1.2,0.7,2,0.9c0.7,0.2,1.5,0.4,2.3,0.6c0.5,0.1,0.9,0.2,1.4,0.3V30
			c-0.1,0-0.2,0-0.4-0.1c-0.5-0.1-0.9-0.3-1.3-0.6c-0.4-0.3-0.7-0.6-0.9-1c-0.2-0.4-0.4-0.9-0.4-1.5h-5.1c0.1,1.3,0.3,2.4,0.9,3.2
			c0.5,0.9,1.2,1.6,2.1,2.1c0.8,0.5,1.8,0.9,2.9,1.1c0.7,0.1,1.4,0.2,2.2,0.3V36h2v-2.3c0.8,0,1.6-0.1,2.4-0.3
			c1.1-0.2,2-0.6,2.8-1.1c0.8-0.5,1.5-1.2,2-2.1c0.5-0.9,0.8-1.9,0.8-3.2c0-0.9-0.2-1.7-0.5-2.3C31.6,24.1,31.2,23.6,30.6,23.2z
			 M22.2,20.5c-0.6-0.2-1-0.4-1.4-0.7c-0.4-0.3-0.5-0.7-0.5-1.2c0-0.4,0.1-0.7,0.3-1c0.2-0.2,0.4-0.4,0.7-0.5c0.3-0.1,0.6-0.2,1-0.2
			c0.1,0,0.1,0,0.2,0v3.8C22.4,20.6,22.3,20.6,22.2,20.5z M26.8,28.9c-0.2,0.3-0.5,0.6-0.8,0.7c-0.3,0.2-0.7,0.3-1.1,0.4
			c-0.1,0-0.2,0-0.4,0.1v-4.6c0.4,0.1,0.8,0.2,1.1,0.4c0.5,0.2,0.9,0.5,1.2,0.8c0.3,0.3,0.4,0.6,0.4,1
			C27.2,28.2,27.1,28.6,26.8,28.9z"/>
	</g>
</g>
</svg>
