<svg id="Capa_1" data-name="Capa 1" xmlns="http://www.w3.org/2000/svg" viewBox="0 0 490.29 490.29"><defs><style>.cls-1{fill:#fff;}</style></defs><title>money-white</title><path class="cls-1" d="M198,40.14,266.19.74a5.3,5.3,0,0,1,8,4.6v21.6h42.2a85.23,85.23,0,0,1,85.1,85.1h-35.6a49.55,49.55,0,0,0-49.5-49.5h-42.2v21.6a5.3,5.3,0,0,1-8,4.6L198,49.34A5.34,5.34,0,0,1,198,40.14Zm93.8,400.8-68.2-39.4a5.3,5.3,0,0,0-8,4.6v21.6h-42.2a49.55,49.55,0,0,1-49.5-49.5H88.29a85.23,85.23,0,0,0,85.1,85.1h42.2v21.6a5.3,5.3,0,0,0,8,4.6l68.2-39.4A5.34,5.34,0,0,0,291.79,440.94Zm54.4-216.7a19.3,19.3,0,1,0,19.3,19.3A19.31,19.31,0,0,0,346.19,224.24Zm-202.2,0a19.3,19.3,0,1,0,19.3,19.3A19.31,19.31,0,0,0,144,224.24Zm284.2-62.3v163.2a31.71,31.71,0,0,1-31.7,31.7H93.79a31.71,31.71,0,0,1-31.7-31.7V161.94a31.71,31.71,0,0,1,31.7-31.7h302.7A31.71,31.71,0,0,1,428.19,161.94Zm-27.1,34.3a34.18,34.18,0,0,1-7.9,1,32.14,32.14,0,0,1-32.1-32.1,28.77,28.77,0,0,1,1-7.8H126.29a28.8,28.8,0,0,1,.6,5.9,32.14,32.14,0,0,1-32.1,32.1,34.3,34.3,0,0,1-5.6-.5v97.5a34.3,34.3,0,0,1,5.6-.5,32.14,32.14,0,0,1,32.1,32.1,28.8,28.8,0,0,1-.6,5.9h234.9a26,26,0,0,1-.3-4,32.14,32.14,0,0,1,32.1-32.1,34.18,34.18,0,0,1,7.9,1v-98.5h.2Zm-86.5,47.3a69.5,69.5,0,1,1-69.5-69.5A69.48,69.48,0,0,1,314.59,243.54Zm-76-18.1a9.82,9.82,0,0,1,1.8-6.1q1.8-2.4,5.7-2.4a7.49,7.49,0,0,1,6.1,2.9,12.86,12.86,0,0,1,2.2,6.6,2.52,2.52,0,0,0,2.6,2.2l13-.2a2.5,2.5,0,0,0,2.5-2.6,22.89,22.89,0,0,0-19.2-22V194a2.22,2.22,0,0,0-2.2-2.2h-7.9A2.22,2.22,0,0,0,241,194v9.5c-6,.9-10.9,3.1-14.7,6.7a20.2,20.2,0,0,0-6.2,15.1c0,6.8,1.9,11.9,5.8,15.4s10.1,6.9,18.7,10.4c3.5,1.5,6,3.1,7.3,4.6a9.78,9.78,0,0,1,2.1,6.7,8.86,8.86,0,0,1-2,6,7.46,7.46,0,0,1-5.9,2.3,10.25,10.25,0,0,1-7.6-3c-1.6-1.6-2.6-4.1-2.8-7.4a2.44,2.44,0,0,0-2.6-2.2l-13,.2a2.5,2.5,0,0,0-2.5,2.6c.3,6.9,2.6,12.2,6.7,16a29.36,29.36,0,0,0,16.7,7.3v8.9a2.22,2.22,0,0,0,2.2,2.2h7.9a2.22,2.22,0,0,0,2.2-2.2v-9.2a24.58,24.58,0,0,0,13.1-6.4c4-3.8,6-8.9,6-15.2,0-6.6-2-11.7-5.9-15.3s-10.1-7.1-18.5-10.7c-3.6-1.6-6.1-3.2-7.4-4.7A9.25,9.25,0,0,1,238.59,225.44Z"/></svg>