<?xml version="1.0" encoding="utf-8"?>
<!-- Generator: Adobe Illustrator 21.0.0, SVG Export Plug-In . SVG Version: 6.00 Build 0)  -->
<svg version="1.1" id="Layer_1" xmlns="http://www.w3.org/2000/svg" xmlns:xlink="http://www.w3.org/1999/xlink" x="0px" y="0px"
	 viewBox="0 0 512 512" style="enable-background:new 0 0 512 512;" xml:space="preserve">
<style type="text/css">
	.st0{fill:#DB1D1D;}
</style>
<g>
	<g>
		<path class="st0" d="M429.2,82.8c-95.5-95.5-251-95.5-346.5,0s-95.5,251,0,346.5s251,95.5,346.5,0S524.8,178.3,429.2,82.8z
			 M111.6,400.4c-79.6-79.6-79.6-209.2,0-288.8s209.2-79.6,288.8,0s79.6,209.2,0,288.8S191.2,480,111.6,400.4z"/>
		<path class="st0" d="M358.1,323.9L290.1,256l67.9-67.9c9.5-9.5,9.5-24.7,0-34.1c-9.5-9.5-24.7-9.5-34.1,0L256,221.9l-67.9-67.9
			c-9.5-9.5-24.7-9.5-34.1,0c-9.5,9.5-9.5,24.7,0,34.1l67.9,67.9l-67.9,67.9c-9.5,9.5-9.5,24.7,0,34.1c9.5,9.5,24.7,9.5,34.1,0
			l67.9-67.9l67.9,67.9c9.5,9.5,24.7,9.5,34.1,0S367.5,333.4,358.1,323.9L358.1,323.9z"/>
	</g>
</g>
</svg>
