<?xml version="1.0" encoding="utf-8"?>
<!-- Generator: Adobe Illustrator 22.0.1, SVG Export Plug-In . SVG Version: 6.00 Build 0)  -->
<svg version="1.1" id="Capa_1" xmlns="http://www.w3.org/2000/svg" xmlns:xlink="http://www.w3.org/1999/xlink" x="0px" y="0px"
	 viewBox="0 0 220.9 220.9" style="enable-background:new 0 0 220.9 220.9;" xml:space="preserve">
<style type="text/css">
	.st0{fill:#3F3F3F;}
</style>
<g>
	<path class="st0" d="M206.4,22.9h-19.2h-30.9V7.5c0-4.1-3.4-7.5-7.5-7.5H72.1c-4.1,0-7.5,3.4-7.5,7.5v15.4H33.7H14.5
		c-4.1,0-7.5,3.4-7.5,7.5s3.4,7.5,7.5,7.5h12.2l12.6,176c0.3,3.9,3.5,7,7.5,7h127.4c3.9,0,7.2-3,7.5-7l12.6-176h12.2
		c4.1,0,7.5-3.4,7.5-7.5S210.6,22.9,206.4,22.9z M79.6,15h61.8v7.9H79.6V15z M167.2,205.9H53.7l-12-168h30.3h76.8h30.3L167.2,205.9z
		"/>
	<path class="st0" d="M110.4,62.9c-4.1,0-7.5,3.4-7.5,7.5v102.9c0,4.1,3.4,7.5,7.5,7.5s7.5-3.4,7.5-7.5V70.4
		C117.9,66.3,114.6,62.9,110.4,62.9z"/>
	<path class="st0" d="M77.2,69.9c-0.3-4.1-3.9-7.3-8-6.9c-4.1,0.3-7.2,3.9-6.9,8l7.4,102.9c0.3,3.9,3.6,7,7.5,7c0.2,0,0.4,0,0.5,0
		c4.1-0.3,7.2-3.9,6.9-8L77.2,69.9z"/>
	<path class="st0" d="M143.7,69.9l-7.4,102.9c-0.3,4.1,2.8,7.7,6.9,8c0.2,0,0.4,0,0.5,0c3.9,0,7.2-3,7.5-7l7.4-102.9
		c0.3-4.1-2.8-7.7-6.9-8C147.6,62.6,144,65.7,143.7,69.9z"/>
</g>
</svg>
